<?xml version="1.0" encoding="utf-8"?>
<!-- Svg Vector Icons : http://www.onlinewebfonts.com/icon -->
<!DOCTYPE svg PUBLIC "-//W3C//DTD SVG 1.1//EN" "http://www.w3.org/Graphics/SVG/1.1/DTD/svg11.dtd">
<svg version="1.1" xmlns="http://www.w3.org/2000/svg" xmlns:xlink="http://www.w3.org/1999/xlink" x="0px" y="0px" viewBox="0 0 1000 1000" enable-background="new 0 0 1000 1000" xml:space="preserve">
<metadata> Svg Vector Icons : http://www.onlinewebfonts.com/icon </metadata>
<g><path d="M447.5,375.3c105.4,0,190.9-81.8,190.9-182.7C638.4,91.8,552.9,10,447.5,10c-105.4,0-190.8,81.8-190.8,182.6C256.7,293.5,342.1,375.3,447.5,375.3L447.5,375.3z M605.9,476c-49.1-31.2-103.9-48.6-161.8-48.6C235.2,427.4,65.9,654.2,65.9,934c0,9.3,0.2,18.6,0.6,27.8h405.8C428.4,908.6,402,840.4,402,766C402,632.4,487,518.7,605.9,476L605.9,476z M915.8,715.3h-22c-10.1,0-20.7-7.9-23.7-17.5l-12.6-30.7c-4.8-8.9-2.8-22,4.3-29.1l15.6-15.6c7.1-7.2,7.1-18.8,0-25.9l-25.9-25.9c-7.1-7.1-18.8-7.1-25.9,0l-15.6,15.6c-7.1,7.1-20.2,9.1-29.1,4.3L750.2,578c-9.6-3-17.5-13.7-17.5-23.8v-22c0-10-8.3-18.3-18.3-18.3h-36.6c-10.1,0-18.4,8.3-18.4,18.3v22c0,10.1-7.8,20.8-17.5,23.8l-30.7,12.6c-8.9,4.8-21.9,2.8-29-4.3l-15.6-15.6c-7.1-7.1-18.8-7.1-25.9,0l-25.9,25.9c-7.1,7.1-7.1,18.8,0,25.9l15.6,15.6c7.1,7.1,9.1,20.2,4.3,29.1l-12.6,30.7c-3,9.6-13.7,17.5-23.8,17.5l-22,0c-10.1,0-18.3,8.2-18.3,18.3v36.6c0,10.1,8.3,18.3,18.3,18.3h22c10.1,0,20.7,7.9,23.7,17.5l12.7,30.7c4.7,8.9,2.8,22-4.3,29.1l-15.6,15.6c-7.1,7.1-7.1,18.8,0,25.9l26,25.9c7.1,7.1,18.8,7.1,25.9,0l15.6-15.6c7.1-7.1,20.2-9,29-4.2L642,926c9.6,3,17.5,13.7,17.5,23.7v21.9c0,10.1,8.3,18.3,18.4,18.3h36.6c10,0,18.3-8.2,18.3-18.3v-21.9c0-10.1,7.9-20.8,17.5-23.7l30.7-12.6c8.9-4.8,22-2.9,29.1,4.2l15.5,15.6c7.1,7.1,18.8,7.1,25.9,0l25.9-25.9c7.1-7.1,7.1-18.8,0-25.9l-15.6-15.6c-7.1-7.1-9-20.2-4.3-29.1l12.6-30.7c3-9.6,13.7-17.5,23.7-17.5h22c10.1,0,18.3-8.2,18.3-18.3v-36.7C934.1,723.6,925.9,715.3,915.8,715.3L915.8,715.3z M696.1,843.5c-50.6,0-91.6-41-91.6-91.5c0-50.6,41-91.5,91.6-91.5c50.6,0,91.6,41,91.6,91.5C787.7,802.5,746.7,843.5,696.1,843.5L696.1,843.5z"/></g>
</svg>